<?xml version="1.0" encoding="utf-8"?>
<!-- Generator: Adobe Illustrator 22.0.1, SVG Export Plug-In . SVG Version: 6.00 Build 0)  -->
<svg version="1.1" id="Layer_1" xmlns="http://www.w3.org/2000/svg" xmlns:xlink="http://www.w3.org/1999/xlink" x="0px" y="0px"
	 viewBox="0 0 192 192" style="enable-background:new 0 0 192 192;" xml:space="preserve">
<style type="text/css">
	.st0{fill:#C7CEEA;enable-background:new    ;}
	.st1{display:none;}
	.st2{display:inline;}
	.st3{fill:#B3B5B7;}
	.st4{fill:#474747;}
	.st5{fill:url(#SVGID_1_);}
	.st6{fill:url(#SVGID_2_);}
	.st7{fill:#FFFFFF;}
	.st8{fill:url(#SVGID_3_);}
	.st9{fill:url(#SVGID_4_);}
	.st10{fill:url(#SVGID_5_);}
	.st11{fill:#3F3F3F;}
	.st12{fill:#232323;}
	.st13{fill:url(#SVGID_6_);}
</style>
<g>
	<g>
		<g>
			<path id="rect2_1_" class="st0" d="M29.9,20H162c5.5,0,9.9,4.4,9.9,9.9V162c0,5.5-4.4,9.9-9.9,9.9H29.9c-5.5,0-9.9-4.4-9.9-9.9
				V29.9C20,24.4,24.4,20,29.9,20z"/>
			<g class="st1">
				<g class="st2">
					<g>
						<path class="st3" d="M81,62.1c2.4,0,4.3,1.9,4.3,4.3v14.8c0,2.4-1.9,4.3-4.3,4.3H66.2c-2.4,0-4.3-1.9-4.3-4.3V66.4
							c0-2.4,1.9-4.3,4.3-4.3L81,62.1 M81,59.5H66.2c-3.8,0-6.9,3.1-6.9,6.9v14.8c0,3.8,3.1,6.9,6.9,6.9H81c3.8,0,6.9-3.1,6.9-6.9
							V66.4C87.9,62.6,84.8,59.5,81,59.5L81,59.5z"/>
					</g>
					<g>
						<path class="st3" d="M78,81.6h-8.8c-1.9,0-3.4-1.5-3.4-3.4v-8.8c0-1.9,1.5-3.4,3.4-3.4H78c1.9,0,3.4,1.5,3.4,3.4v8.8
							C81.5,80.1,79.9,81.6,78,81.6z"/>
					</g>
				</g>
				<g class="st2">
					<g>
						<path class="st3" d="M125.8,62.1c2.4,0,4.3,1.9,4.3,4.3v14.8c0,2.4-1.9,4.3-4.3,4.3H111c-2.4,0-4.3-1.9-4.3-4.3V66.4
							c0-2.4,1.9-4.3,4.3-4.3L125.8,62.1 M125.8,59.5H111c-3.8,0-6.9,3.1-6.9,6.9v14.8c0,3.8,3.1,6.9,6.9,6.9h14.8
							c3.8,0,6.9-3.1,6.9-6.9V66.4C132.6,62.6,129.6,59.5,125.8,59.5L125.8,59.5z"/>
					</g>
					<g>
						<path class="st3" d="M122.8,81.6H114c-1.9,0-3.4-1.5-3.4-3.4v-8.8c0-1.9,1.5-3.4,3.4-3.4h8.8c1.9,0,3.4,1.5,3.4,3.4v8.8
							C126.2,80.1,124.7,81.6,122.8,81.6z"/>
					</g>
				</g>
				<g class="st2">
					<path class="st3" d="M99.3,101.6L99.3,101.6h-8.5V99h8.4c1.2,0,2.2-0.4,3-1.3c0.8-0.8,1.2-1.9,1.2-3V93H86.6v-2.6l19.4-0.1
						l0.1,4.3c0,1.8-0.7,3.6-2,4.9C102.9,100.9,101.1,101.6,99.3,101.6z"/>
				</g>
				<g class="st2">
					<g>
						<path class="st3" d="M81,106.6c2.4,0,4.3,1.9,4.3,4.3v14.8c0,2.4-1.9,4.3-4.3,4.3H66.2c-2.4,0-4.3-1.9-4.3-4.3v-14.8
							c0-2.4,1.9-4.3,4.3-4.3L81,106.6 M81,104H66.2c-3.8,0-6.9,3.1-6.9,6.9v14.8c0,3.8,3.1,6.9,6.9,6.9H81c3.8,0,6.9-3.1,6.9-6.9
							v-14.8C87.9,107.1,84.8,104,81,104L81,104z"/>
					</g>
					<g>
						<path class="st3" d="M78,126.1h-8.8c-1.9,0-3.4-1.5-3.4-3.4v-8.8c0-1.9,1.5-3.4,3.4-3.4H78c1.9,0,3.4,1.5,3.4,3.4v8.8
							C81.5,124.5,79.9,126.1,78,126.1z"/>
					</g>
				</g>
				<g class="st2">
					<g>
						<path class="st3" d="M125.8,106.6c2.4,0,4.3,1.9,4.3,4.3v14.8c0,2.4-1.9,4.3-4.3,4.3H111c-2.4,0-4.3-1.9-4.3-4.3v-14.8
							c0-2.4,1.9-4.3,4.3-4.3L125.8,106.6 M125.8,104H111c-3.8,0-6.9,3.1-6.9,6.9v14.8c0,3.8,3.1,6.9,6.9,6.9h14.8
							c3.8,0,6.9-3.1,6.9-6.9v-14.8C132.6,107.1,129.6,104,125.8,104L125.8,104z"/>
					</g>
					<g>
						<path class="st3" d="M122.8,126.1H114c-1.9,0-3.4-1.5-3.4-3.4v-8.8c0-1.9,1.5-3.4,3.4-3.4h8.8c1.9,0,3.4,1.5,3.4,3.4v8.8
							C126.2,124.5,124.7,126.1,122.8,126.1z"/>
					</g>
				</g>
				<g class="st2">
					<g>
						<rect x="111.3" y="94.8" class="st3" width="11.3" height="2.6"/>
					</g>
					<g>
						<rect x="123.7" y="94.8" class="st3" width="6.9" height="2.6"/>
					</g>
					<g>
						<rect x="94.7" y="110.8" class="st3" width="2.6" height="14.8"/>
					</g>
					<g>
						<rect x="63.4" y="94.7" class="st3" width="7.6" height="2.6"/>
					</g>
					<g>
						<rect x="73.5" y="94.8" class="st3" width="3.7" height="2.6"/>
					</g>
					<g>
						<rect x="94.7" y="63.3" class="st3" width="2.6" height="12"/>
					</g>
					<g>
						<rect x="94.7" y="77.5" class="st3" width="2.6" height="5.4"/>
					</g>
				</g>
			</g>
		</g>
		<g class="st1">
			<g class="st2">
				<path class="st4" d="M96,59.3c-15.2,0-27.5,12.3-27.5,27.5c0,0.2,0,0.3,0,0.5c0.1,3.2,0.7,6.3,1.7,9.1
					c4.5,13.6,16.6,28.1,22.6,34.7c1.8,2,5,2,6.8,0c6.1-6.8,18.6-21.9,22.6-36c0.8-2.5,1.2-5.1,1.3-7.8c0-0.2,0-0.4,0-0.5
					C123.5,71.7,111.2,59.3,96,59.3z M96,97.2c-6.4,0-11.6-5.2-11.6-11.6S89.6,74,96,74s11.6,5.2,11.6,11.6S102.4,97.2,96,97.2z"/>
			</g>
			<g class="st2">
				
					<linearGradient id="SVGID_1_" gradientUnits="userSpaceOnUse" x1="82" y1="99.445" x2="123.5" y2="99.445" gradientTransform="matrix(1 0 0 -1 0 192)">
					<stop  offset="0" style="stop-color:#000000;stop-opacity:0.15"/>
					<stop  offset="1" style="stop-color:#020202;stop-opacity:0"/>
				</linearGradient>
				<path class="st5" d="M106.7,61.5c-1.3-0.5-2.7-0.6-4-0.3C90.8,64.2,82,75,82,87.8c0,0.2,0,0.3,0,0.5c0.1,3.2,0.7,6.3,1.7,9.1
					c2.8,8.5,8.9,15.5,14.2,22.6c3.9,5.2,7,5,9.4,1.8c5.8-7.5,12.2-17.3,14.9-26.7c0.8-2.5,1.2-5.1,1.3-7.8c0-0.2,0-0.4,0-0.5
					C123.5,75.4,116.6,65.6,106.7,61.5z M96,97.2c-6.4,0-11.6-5.2-11.6-11.6S89.6,74,96,74s11.6,5.2,11.6,11.6S102.4,97.2,96,97.2z"
					/>
			</g>
			<g class="st2">
				
					<linearGradient id="SVGID_2_" gradientUnits="userSpaceOnUse" x1="103.9145" y1="87.1769" x2="103.3497" y2="126.9039" gradientTransform="matrix(1 0 0 -1 0 192)">
					<stop  offset="0" style="stop-color:#000000;stop-opacity:0.15"/>
					<stop  offset="1" style="stop-color:#020202;stop-opacity:0"/>
				</linearGradient>
				<path class="st6" d="M118.1,70.4c-3.6-3.3-8.5-5.3-13.8-5.3c-11.3,0-20.5,9.2-20.5,20.5s9.2,20.5,20.5,20.5
					c7.6,0,14.2-4.1,17.7-10.2c0.1-0.2,0.1-0.4,0.2-0.7c0.8-2.5,1.2-5.1,1.3-7.8c0-0.2,0-0.4,0-0.5C123.5,80.7,121.5,75,118.1,70.4z
					 M96,97.2c-6.4,0-11.6-5.2-11.6-11.6S89.6,74,96,74s11.6,5.2,11.6,11.6S102.4,97.2,96,97.2z"/>
			</g>
		</g>
	</g>
	<g>
		<g>
			<path class="st7" d="M92.8,130.9c1.8,2,4.9,2,6.7,0c6-6.7,18.5-21.7,22.5-35.7c0.8-2.4,1.2-5,1.3-7.7c0-0.2,0-0.4,0-0.5
				c0-15.1-12.2-27.3-27.3-27.3S68.7,71.8,68.7,86.9c0,0.2,0,0.3,0,0.5c0.1,3.2,0.7,6.2,1.7,9C74.9,110,86.9,124.4,92.8,130.9z"/>
			<g>
				
					<linearGradient id="SVGID_3_" gradientUnits="userSpaceOnUse" x1="81.9186" y1="99.4617" x2="123.1186" y2="99.4617" gradientTransform="matrix(1 0 0 -1 0 192)">
					<stop  offset="0" style="stop-color:#000000;stop-opacity:0.15"/>
					<stop  offset="1" style="stop-color:#020202;stop-opacity:0"/>
				</linearGradient>
				<path class="st8" d="M123.3,87.4c0-0.2,0-0.4,0-0.5c0-11.3-6.9-21.1-16.7-25.2c-1.3-0.5-2.6-0.6-4-0.3
					c-11.8,3-20.5,13.7-20.5,26.5c0,0.2,0,0.3,0,0.5c0.1,3.2,0.7,6.2,1.7,9c2.8,8.4,8.8,15.4,14.1,22.4c3.9,5.1,6.9,5,9.3,1.8
					c5.8-7.5,12.1-17.2,14.8-26.5C122.8,92.7,123.3,90.1,123.3,87.4z"/>
			</g>
			<g>
				
					<linearGradient id="SVGID_4_" gradientUnits="userSpaceOnUse" x1="83.8638" y1="106.35" x2="123.3134" y2="106.35" gradientTransform="matrix(1 0 0 -1 0 192)">
					<stop  offset="0" style="stop-color:#000000;stop-opacity:0.15"/>
					<stop  offset="1" style="stop-color:#020202;stop-opacity:0"/>
				</linearGradient>
				<path class="st9" d="M123.3,87.4c0-0.2,0-0.4,0-0.5c0-6.1-2-11.7-5.4-16.3c-3.6-3.3-8.4-5.3-13.7-5.3
					c-11.2,0-20.4,9.1-20.4,20.4S93,106,104.2,106c7.5,0,14.1-4.1,17.6-10.2c0.1-0.2,0.1-0.4,0.2-0.7
					C122.8,92.7,123.3,90.1,123.3,87.4z"/>
			</g>
			<circle class="st7" cx="96" cy="85.7" r="11.5"/>
		</g>
		<g>
			<g>
				
					<linearGradient id="SVGID_5_" gradientUnits="userSpaceOnUse" x1="78.3" y1="105.1" x2="113.7" y2="105.1" gradientTransform="matrix(1 0 0 -1 0 192)">
					<stop  offset="0" style="stop-color:#000000;stop-opacity:0.15"/>
					<stop  offset="1" style="stop-color:#020202;stop-opacity:0"/>
				</linearGradient>
				<circle class="st10" cx="96" cy="86.9" r="17.7"/>
			</g>
			<g>
				<circle class="st11" cx="96" cy="86.9" r="15.1"/>
				<circle class="st12" cx="96" cy="86.9" r="10.9"/>
				<circle cx="96" cy="86.9" r="5"/>
				
					<linearGradient id="SVGID_6_" gradientUnits="userSpaceOnUse" x1="97.4889" y1="103.5111" x2="102.1132" y2="98.8869" gradientTransform="matrix(1 0 0 -1 0 192)">
					<stop  offset="0" style="stop-color:#FFFFFF;stop-opacity:0.3"/>
					<stop  offset="1" style="stop-color:#FFFFFF;stop-opacity:0"/>
				</linearGradient>
				<circle class="st13" cx="99.8" cy="90.8" r="3.3"/>
			</g>
		</g>
	</g>
</g>
</svg>
