<?xml version="1.0" encoding="utf-8"?>
<!-- Generator: Adobe Illustrator 22.0.1, SVG Export Plug-In . SVG Version: 6.00 Build 0)  -->
<svg version="1.1" id="Layer_1" xmlns="http://www.w3.org/2000/svg" xmlns:xlink="http://www.w3.org/1999/xlink" x="0px" y="0px"
	 viewBox="0 0 192 192" style="enable-background:new 0 0 192 192;" xml:space="preserve">
<style type="text/css">
	.st0{fill:#B5EAD7;enable-background:new    ;}
	.st1{display:none;}
	.st2{display:inline;}
	.st3{fill:#505051;}
	.st4{fill:#474747;}
	.st5{fill:url(#SVGID_1_);}
	.st6{fill:url(#SVGID_2_);}
</style>
<g>
	<g>
		<path id="rect2_1_" class="st0" d="M29.9,20H162c5.5,0,9.9,4.4,9.9,9.9V162c0,5.5-4.4,9.9-9.9,9.9H29.9c-5.5,0-9.9-4.4-9.9-9.9
			V29.9C20,24.4,24.4,20,29.9,20z"/>
		<g class="st1">
			<g class="st2">
				<g>
					<path class="st3" d="M81,62.1c2.4,0,4.3,1.9,4.3,4.3v14.8c0,2.4-1.9,4.3-4.3,4.3H66.2c-2.4,0-4.3-1.9-4.3-4.3V66.4
						c0-2.4,1.9-4.3,4.3-4.3L81,62.1 M81,59.5H66.2c-3.8,0-6.9,3.1-6.9,6.9v14.8c0,3.8,3.1,6.9,6.9,6.9H81c3.8,0,6.9-3.1,6.9-6.9
						V66.4C87.9,62.6,84.8,59.5,81,59.5L81,59.5z"/>
				</g>
				<g>
					<path class="st3" d="M78,81.6h-8.8c-1.9,0-3.4-1.5-3.4-3.4v-8.8c0-1.9,1.5-3.4,3.4-3.4H78c1.9,0,3.4,1.5,3.4,3.4v8.8
						C81.5,80.1,79.9,81.6,78,81.6z"/>
				</g>
			</g>
			<g class="st2">
				<g>
					<path class="st3" d="M125.8,62.1c2.4,0,4.3,1.9,4.3,4.3v14.8c0,2.4-1.9,4.3-4.3,4.3H111c-2.4,0-4.3-1.9-4.3-4.3V66.4
						c0-2.4,1.9-4.3,4.3-4.3L125.8,62.1 M125.8,59.5H111c-3.8,0-6.9,3.1-6.9,6.9v14.8c0,3.8,3.1,6.9,6.9,6.9h14.8
						c3.8,0,6.9-3.1,6.9-6.9V66.4C132.6,62.6,129.6,59.5,125.8,59.5L125.8,59.5z"/>
				</g>
				<g>
					<path class="st3" d="M122.8,81.6H114c-1.9,0-3.4-1.5-3.4-3.4v-8.8c0-1.9,1.5-3.4,3.4-3.4h8.8c1.9,0,3.4,1.5,3.4,3.4v8.8
						C126.2,80.1,124.7,81.6,122.8,81.6z"/>
				</g>
			</g>
			<g class="st2">
				<path class="st3" d="M99.3,101.6L99.3,101.6h-8.5V99h8.4c1.2,0,2.2-0.4,3-1.3c0.8-0.8,1.2-1.9,1.2-3V93H86.6v-2.6l19.4-0.1
					l0.1,4.3c0,1.8-0.7,3.6-2,4.9C102.9,100.9,101.1,101.6,99.3,101.6z"/>
			</g>
			<g class="st2">
				<g>
					<path class="st3" d="M81,106.6c2.4,0,4.3,1.9,4.3,4.3v14.8c0,2.4-1.9,4.3-4.3,4.3H66.2c-2.4,0-4.3-1.9-4.3-4.3v-14.8
						c0-2.4,1.9-4.3,4.3-4.3L81,106.6 M81,104H66.2c-3.8,0-6.9,3.1-6.9,6.9v14.8c0,3.8,3.1,6.9,6.9,6.9H81c3.8,0,6.9-3.1,6.9-6.9
						v-14.8C87.9,107.1,84.8,104,81,104L81,104z"/>
				</g>
				<g>
					<path class="st3" d="M78,126.1h-8.8c-1.9,0-3.4-1.5-3.4-3.4v-8.8c0-1.9,1.5-3.4,3.4-3.4H78c1.9,0,3.4,1.5,3.4,3.4v8.8
						C81.5,124.5,79.9,126.1,78,126.1z"/>
				</g>
			</g>
			<g class="st2">
				<g>
					<path class="st3" d="M125.8,106.6c2.4,0,4.3,1.9,4.3,4.3v14.8c0,2.4-1.9,4.3-4.3,4.3H111c-2.4,0-4.3-1.9-4.3-4.3v-14.8
						c0-2.4,1.9-4.3,4.3-4.3L125.8,106.6 M125.8,104H111c-3.8,0-6.9,3.1-6.9,6.9v14.8c0,3.8,3.1,6.9,6.9,6.9h14.8
						c3.8,0,6.9-3.1,6.9-6.9v-14.8C132.6,107.1,129.6,104,125.8,104L125.8,104z"/>
				</g>
				<g>
					<path class="st3" d="M122.8,126.1H114c-1.9,0-3.4-1.5-3.4-3.4v-8.8c0-1.9,1.5-3.4,3.4-3.4h8.8c1.9,0,3.4,1.5,3.4,3.4v8.8
						C126.2,124.5,124.7,126.1,122.8,126.1z"/>
				</g>
			</g>
			<g class="st2">
				<g>
					<rect x="111.3" y="94.8" class="st3" width="11.3" height="2.6"/>
				</g>
				<g>
					<rect x="123.7" y="94.8" class="st3" width="6.9" height="2.6"/>
				</g>
				<g>
					<rect x="94.7" y="110.8" class="st3" width="2.6" height="14.8"/>
				</g>
				<g>
					<rect x="63.4" y="94.7" class="st3" width="7.6" height="2.6"/>
				</g>
				<g>
					<rect x="73.5" y="94.8" class="st3" width="3.7" height="2.6"/>
				</g>
				<g>
					<rect x="94.7" y="63.3" class="st3" width="2.6" height="12"/>
				</g>
				<g>
					<rect x="94.7" y="77.5" class="st3" width="2.6" height="5.4"/>
				</g>
			</g>
		</g>
	</g>
	<g>
		<g>
			<path class="st4" d="M96,59.3c-15.2,0-27.5,12.3-27.5,27.5c0,0.2,0,0.3,0,0.5c0.1,3.2,0.7,6.3,1.7,9.1
				c4.5,13.6,16.6,28.1,22.6,34.7c1.8,2,5,2,6.8,0c6.1-6.8,18.6-21.9,22.6-36c0.8-2.5,1.2-5.1,1.3-7.8c0-0.2,0-0.4,0-0.5
				C123.5,71.7,111.2,59.3,96,59.3z M96,97.2c-6.4,0-11.6-5.2-11.6-11.6S89.6,74,96,74s11.6,5.2,11.6,11.6S102.4,97.2,96,97.2z"/>
		</g>
		<g>
			
				<linearGradient id="SVGID_1_" gradientUnits="userSpaceOnUse" x1="82" y1="99.445" x2="123.5" y2="99.445" gradientTransform="matrix(1 0 0 -1 0 192)">
				<stop  offset="0" style="stop-color:#000000;stop-opacity:0.15"/>
				<stop  offset="1" style="stop-color:#020202;stop-opacity:0"/>
			</linearGradient>
			<path class="st5" d="M106.7,61.5c-1.3-0.5-2.7-0.6-4-0.3C90.8,64.2,82,75,82,87.8c0,0.2,0,0.3,0,0.5c0.1,3.2,0.7,6.3,1.7,9.1
				c2.8,8.5,8.9,15.5,14.2,22.6c3.9,5.2,7,5,9.4,1.8c5.8-7.5,12.2-17.3,14.9-26.7c0.8-2.5,1.2-5.1,1.3-7.8c0-0.2,0-0.4,0-0.5
				C123.5,75.4,116.6,65.6,106.7,61.5z M96,97.2c-6.4,0-11.6-5.2-11.6-11.6S89.6,74,96,74s11.6,5.2,11.6,11.6S102.4,97.2,96,97.2z"
				/>
		</g>
		<g>
			
				<linearGradient id="SVGID_2_" gradientUnits="userSpaceOnUse" x1="103.9145" y1="87.1769" x2="103.3497" y2="126.9039" gradientTransform="matrix(1 0 0 -1 0 192)">
				<stop  offset="0" style="stop-color:#000000;stop-opacity:0.15"/>
				<stop  offset="1" style="stop-color:#020202;stop-opacity:0"/>
			</linearGradient>
			<path class="st6" d="M118.1,70.4c-3.6-3.3-8.5-5.3-13.8-5.3c-11.3,0-20.5,9.2-20.5,20.5s9.2,20.5,20.5,20.5
				c7.6,0,14.2-4.1,17.7-10.2c0.1-0.2,0.1-0.4,0.2-0.7c0.8-2.5,1.2-5.1,1.3-7.8c0-0.2,0-0.4,0-0.5C123.5,80.7,121.5,75,118.1,70.4z
				 M96,97.2c-6.4,0-11.6-5.2-11.6-11.6S89.6,74,96,74s11.6,5.2,11.6,11.6S102.4,97.2,96,97.2z"/>
		</g>
	</g>
</g>
</svg>
